/* XPM */
static const char *australia_xpm[]={
"30 15 16 1",
"      c #E68885",
"0     c #D7BCC7",
"1     c #2F4C95",
"2     c #092A7F",
"3     c #DC2C23",
"4     c #EB9A99",
"5     c #916785",
"6     c #59659D",
"7     c #AEA8C3",
"8     c #DDD5E1",
"9     c #7689BA",
"a     c #F7F8FA",
"b     c #E46A64",
"c     c #C08494",
"d     c #6C426C",
"e     c #6C2A54",
" 001120342215 0222222221222221",
"65 07143 15 781222222212222222",
"99700a03400a099222222281222222",
"333333333333333222222222222222",
"44 44 b3b4 4 4 222222222221222",
"2170 c43478 512222122222297222",
"08 5227342270 5222792222222222",
"6d22226e122229d222222222122222",
"222222222222222222222222122222",
"222222922222222222222222222222",
"222228a72222222222222222222222",
"22226aa81222222222222212222222",
"222229762222222222222286222222",
"222221212222222222222212222222",
"122222222222222222222222222221"};
