/* XPM */
static const char *brazil_xpm[]={
"30 21 16 1",
"      c #3A8E12",
"0     c #3B960A",
"1     c #6FAA02",
"2     c #96B802",
"3     c #FBDD02",
"4     c #D6CA0C",
"5     c #B8BF0D",
"6     c #728652",
"7     c #426272",
"8     c #A29E3A",
"9     c #063C9F",
"a     c #A2C2AA",
"b     c #8AB1A3",
"c     c #3A68A2",
"d     c #1D4DA0",
"e     c #528492",
"     0    0    0    0    0    ",
" 0000000000000000000000000000 ",
" 0000000000000110000000000000 ",
" 0000000000002332000000000000 ",
" 0000000000143333410000000000 ",
" 0000000005346776435000000000 ",
" 0000000133899999983310000000 ",
" 0000005338999999998335000000 ",
" 000023333abbbbc999d333320000 ",
" 0014333349999cebc99433334100 ",
" 0133333359999999ebd533333310 ",
" 0014333349d999d99da433334100 ",
" 000023333d9d99d99dc333320000 ",
" 0000005338999999dd8335000000 ",
" 0000000133899999983310000000 ",
" 0000000002346776435000000000 ",
" 0000000000143333410000000000 ",
" 0000000000002332000000000000 ",
" 0000000000000000000000000000 ",
" 0000000000000000000000000000 ",
"     0    0        0    0   0 "};
