/* XPM */
static const char *france_xpm[]={
"30 20 5 1",
"      c #0C429C",
"0     c #F4F6FC",
"1     c #FCFEFC",
"2     c #FCEAEC",
"3     c #FC0204",
"          01111111123333333333",
"          21111111123333333333",
"          01111111123333333333",
"          21111111123333333333",
"          01111111123333333333",
"          21111111123333333333",
"          01111111123333333333",
"          21111111123333333333",
"          01111111123333333333",
"          21111111123333333333",
"          01111111123333333333",
"          21111111123333333333",
"          01111111123333333333",
"          01111111123333333333",
"          01111111123333333333",
"          21111111123333333333",
"          01111111123333333333",
"          01111111123333333333",
"          01111111123333333333",
"          01111111123333333333"};
