/* XPM */
static const char *japan_xpm[]={
"30 20 4 1",
"      c #FFFFFF",
"0     c #C0C0C0",
"1     c #FF0000",
"2     c #808080",
"                              ",
"                              ",
"                              ",
"                              ",
"            011110            ",
"           11111111           ",
"          1111111111          ",
"         211111111110         ",
"         111111111111         ",
"         111111111111         ",
"         111111111111         ",
"         111111111111         ",
"         211111111110         ",
"          1111111111          ",
"           11111111           ",
"            211112            ",
"                              ",
"                              ",
"                              ",
"                              "};
