/* XPM */
static const char *russia_xpm[]={
"30 20 12 1",
"      c #E7E7E7",
"0     c #F7F7F7",
"1     c #FFFFFF",
"2     c #ADCEE7",
"3     c #B5D6EF",
"4     c #0073C6",
"5     c #0073CE",
"6     c #9C394A",
"7     c #9C3942",
"8     c #CE2918",
"9     c #DE2110",
"a     c #D62110",
" 0 0 0 0 0 0 0 0 0 0 0 0 0 0  ",
"011111111111111111111111111110",
"01111111111111111111111111111 ",
"001111111111111111111111111110",
"01111111111111111111111111111 ",
"001111111111111111111111111110",
"223232323232323232323232323232",
"455555555555555555555555555554",
"455555555555555555555555555554",
"455555555555555555555555555554",
"455555555555555555555555555554",
"455555555555555555555555555554",
"455555555555555555555555555554",
"677677677677677677677677677676",
"89999999999999999999999999999a",
"89999999999999999999999999999a",
"a99999999999999999999999999998",
"89999999999999999999999999999a",
"899999999999999999999999999998",
"88a8a8a8a8a8a8a8a8a8a8a8a8a8a8"};
