/* XPM */
static const char *usa_xpm[]={
"30 16 16 1",
"      c #303F8B",
"0     c #27327A",
"1     c #D3332B",
"2     c #1A2A7A",
"3     c #3A428E",
"4     c #F5CDCD",
"5     c #3A4A8E",
"6     c #EB8E8D",
"7     c #122272",
"8     c #E56A64",
"9     c #FBE1E1",
"a     c #FBEEEE",
"b     c #DE322A",
"c     c #F3D6DB",
"d     c #EA7A7A",
"e     c #636DA9",
" 0 0 0 0 0 0111111111111111111",
"23 3 3 3 3 2444444444444444444",
"5           666666666666666666",
"73         7888888888888888888",
"3 3         9aaaaaaaaaaaaaaaa9",
"0535535355301bbbbbbbbbbbbbbbb1",
"05 3 3 3 3 0cccccccccccccccc94",
"3 3 3 3   3 dddddddddddddddddd",
"eeeeeeeeeeeedddddddddddddddddd",
"cc9c9c9c9c9c9c99c99c99c99c99cc",
"1bbbbbbbbbbbbbbbbbbbbbbbbbbbb1",
"99aaa9aa9aa9aaa9aa9aaa9aaa9aa9",
"888888888888888888888888888888",
"666666666666666666666666666666",
"444444444444444444444444444444",
"111111111111111111111111111111"};
